<svg id="레이어_2" data-name="레이어 2" xmlns="http://www.w3.org/2000/svg" viewBox="0 0 400 400"><defs><style>.cls-1{opacity:0.5;}.cls-2,.cls-3{fill:#fff;}.cls-3{stroke:#000;stroke-miterlimit:10;stroke-width:5px;}</style></defs><rect width="400" height="400"/><g class="cls-1"><path class="cls-2" d="M53.44,329c0-37.18,23.93-59,52.41-59a46,46,0,0,1,33.06,14.48L127,298.79c-5.64-5.48-12.19-9.44-20.72-9.44-17.06,0-29.86,14.63-29.86,38.84,0,24.54,11.58,39.31,29.4,39.31,9.6,0,17.22-4.58,23.31-11.13l11.89,14c-9.3,10.82-21.33,16.61-36,16.61C76.6,387,53.44,366.58,53.44,329Z"/><path class="cls-2" d="M147.65,329c0-37.18,24.07-59,54.08-59a47.44,47.44,0,0,1,34.89,14.48l-12,14.31c-5.48-5.33-11.88-9.44-22.09-9.44-18.73,0-31.84,14.63-31.84,38.84,0,24.54,11.28,39.31,33.37,39.31,5.48,0,11-1.53,14.16-4.27V341h-20V322.56h40.06v50.88c-7.61,7.47-20.87,13.56-36.56,13.56C171,387,147.65,366.58,147.65,329Z"/><path class="cls-2" d="M314.22,355.93H277.66l-7.92,28.94H246.89L283,272.13H309.5l36.26,112.74H322.15Zm-4.87-17.53L306,326.06c-3.51-11.73-6.55-24.68-9.91-36.87h-.61c-2.89,12.34-6.24,25.14-9.59,36.87l-3.36,12.34Z"/></g><g class="cls-1"><path class="cls-2" d="M24.81,112.82C56,84.9,74.45,63.34,74.45,45.66,74.45,34,68.09,27,57.24,27c-8.39,0-15.36,5.43-21.1,11.79L23.73,26.42C34.27,15.25,44.52,9.05,60.18,9.05c21.72,0,36.15,14,36.15,35.36,0,20.79-17.22,43.13-38.17,63.61,5.74-.63,13.35-1.25,18.62-1.25h25V126H24.81Z"/><path class="cls-2" d="M116.39,68.15c0-39.71,15.51-59.1,38.93-59.1s38.78,19.54,38.78,59.1-15.51,60-38.78,60S116.39,107.71,116.39,68.15Zm56.15,0c0-32.11-7.45-41.42-17.22-41.42C145.39,26.73,138,36,138,68.15s7.44,42.19,17.37,42.19C165.09,110.34,172.54,100.41,172.54,68.15Z"/><path class="cls-2" d="M207.64,112.82c31.18-27.92,49.64-49.48,49.64-67.16C257.28,34,250.92,27,240.07,27c-8.38,0-15.36,5.43-21.1,11.79L206.56,26.42C217.1,15.25,227.35,9.05,243,9.05c21.72,0,36.15,14,36.15,35.36,0,20.79-17.22,43.13-38.16,63.61,5.74-.63,13.34-1.25,18.61-1.25h25V126H207.64Z"/><path class="cls-2" d="M299.06,112.82C330.24,84.9,348.7,63.34,348.7,45.66,348.7,34,342.34,27,331.48,27c-8.38,0-15.36,5.43-21.1,11.79L298,26.42c10.56-11.17,20.79-17.37,36.46-17.37,21.71,0,36.14,14,36.14,35.36,0,20.79-17.22,43.13-38.16,63.61,5.74-.63,13.34-1.25,18.62-1.25h25V126H299.06Z"/></g><path class="cls-3" d="M20.31,266.51l20.63-24.76c12.87,11.89,29.87,19.91,45.65,19.91,18.69,0,28.66-8,28.66-20.64,0-13.36-10.94-17.48-27-24.28l-24-10.2C46,199,27.83,184.44,27.83,158.22c0-29.38,25.74-52,62.16-52,20.88,0,41.76,8.26,56.33,23.07l-18.21,22.58C116.7,142.44,104.8,137.1,90,137.1c-15.79,0-26,7-26,18.94,0,12.87,12.87,17.48,28.16,23.55l23.56,10c21.85,9,36.17,22.82,36.17,48.8,0,29.38-24.52,54.39-66,54.39A95.72,95.72,0,0,1,20.31,266.51Z"/><path class="cls-3" d="M166.06,109.66h36.67l14.32,87.66c2.67,18.94,5.59,38.11,8.26,57.3h1c3.64-19.19,7.53-38.61,11.41-57.3l20.88-87.66h30.59l20.89,87.66c3.89,18.45,7.52,37.88,11.41,57.3h1.21c2.67-19.42,5.34-38.61,8-57.3l14.09-87.66H379L345.74,289.34H301.07l-20.16-88.87c-2.92-14.08-5.59-27.93-7.77-41.52h-1c-2.43,13.59-4.85,27.44-7.77,41.52l-19.67,88.87H200.79Z"/></svg>